<svg width="44" height="44" viewBox="0 0 44 44" fill="none" xmlns="http://www.w3.org/2000/svg">
<path d="M13.5265 13.5265C12.8245 14.2284 12.8245 15.3666 13.5265 16.0685L19.4579 22L13.5265 27.9315C12.8245 28.6334 12.8245 29.7716 13.5265 30.4735C14.2284 31.1755 15.3666 31.1755 16.0685 30.4735L22 24.5421L27.9315 30.4735C28.6334 31.1755 29.7716 31.1755 30.4735 30.4735C31.1755 29.7716 31.1755 28.6334 30.4735 27.9315L24.5421 22L30.4735 16.0685C31.1755 15.3666 31.1755 14.2284 30.4735 13.5265C29.7716 12.8245 28.6334 12.8245 27.9315 13.5265L22 19.4579L16.0685 13.5265C15.3666 12.8245 14.2284 12.8245 13.5265 13.5265Z" fill="white"/>
</svg>
