<svg width="58" height="54" viewBox="0 0 58 54" fill="none" xmlns="http://www.w3.org/2000/svg">
<path d="M42.3857 0H42.2466C36.7116 0 31.8166 2.83568 29.0009 7.02005C26.1852 2.83568 21.2902 0 15.7553 0H15.6162C11.4624 0.0383254 7.49198 1.66226 4.56788 4.5189C1.64379 7.37554 0.00225492 11.234 0 15.2559C0 20.2502 2.25923 27.3367 6.66455 33.1679C15.0579 44.279 29.0009 54 29.0009 54C29.0009 54 42.944 44.2808 51.3354 33.1679C55.7426 27.3367 58 20.2502 58 15.2559C57.9977 11.2344 56.3565 7.37612 53.4328 4.51953C50.5091 1.66294 46.5392 0.0387956 42.3857 0ZM40.3954 34.0227C39.765 34.0204 39.1501 33.8336 38.6314 33.4868C38.1127 33.14 37.7144 32.6495 37.4888 32.0796H34.1797C33.9618 32.0783 33.7498 32.0111 33.5732 31.8875C33.3966 31.7639 33.2643 31.5899 33.1948 31.39L32.1783 28.425L28.962 39.3062C28.8993 39.5157 28.7682 39.6998 28.5883 39.8309C28.4083 39.9621 28.1893 40.0332 27.964 40.0335H27.8991C27.6641 40.0225 27.4401 39.9338 27.2646 39.7821C27.089 39.6304 26.9725 39.425 26.9346 39.2002L23.6199 19.8982L21.1975 31.32C21.1419 31.5369 21.0129 31.7296 20.831 31.8673C20.6492 32.005 20.4249 32.0798 20.194 32.0796H15.5327C15.393 32.0853 15.2535 32.0636 15.1226 32.0158C14.9918 31.968 14.8723 31.895 14.7713 31.8013C14.6704 31.7076 14.59 31.5951 14.5351 31.4706C14.4803 31.346 14.452 31.212 14.452 31.0766C14.452 30.9412 14.4803 30.8072 14.5351 30.6827C14.59 30.5581 14.6704 30.4456 14.7713 30.3519C14.8723 30.2582 14.9918 30.1853 15.1226 30.1374C15.2535 30.0896 15.393 30.0679 15.5327 30.0736H19.3778L22.8094 14.7171C22.8657 14.4901 23.0017 14.2891 23.1942 14.1484C23.3867 14.0077 23.6237 13.9361 23.8646 13.9459C24.1056 13.9556 24.3356 14.0461 24.5153 14.2019C24.6949 14.3576 24.8132 14.569 24.8497 14.7998L28.2349 34.4897L31.1173 24.7543C31.1773 24.5492 31.3042 24.3685 31.4791 24.239C31.6539 24.1095 31.8673 24.0383 32.0874 24.0359H32.1078C32.3258 24.036 32.5382 24.1027 32.7148 24.2265C32.8913 24.3504 33.0229 24.525 33.0909 24.7255L34.9291 30.079H37.448C37.6271 29.5522 37.953 29.0836 38.3899 28.7248C38.8267 28.366 39.3574 28.1311 39.9234 28.0459C40.4894 27.9607 41.0688 28.0286 41.5974 28.242C42.1261 28.4555 42.5836 28.8062 42.9194 29.2555C43.2553 29.7048 43.4563 30.2352 43.5005 30.7882C43.5446 31.3411 43.4301 31.8951 43.1695 32.389C42.909 32.883 42.5126 33.2976 42.024 33.5871C41.5355 33.8767 40.9738 34.0299 40.401 34.0299L40.3954 34.0227Z" fill="#D02073"/>
</svg>
