<svg width="132" height="30" viewBox="0 0 132 30" fill="none" xmlns="http://www.w3.org/2000/svg">
<g clip-path="url(#clip0)">
<path d="M11.053 0.00592308H18.4247V11.0615H11.053V0.00592308ZM11.053 18.4304H18.4247V29.4848H11.053V18.4304ZM0 11.0615H11.053V18.4304H0V11.0615ZM18.4247 11.0615H29.4803V18.4304H18.4247V11.0615ZM24.9201 6.00318L27.8486 3.08649C28.0373 2.89779 28.1253 2.62956 28.1253 2.28236C28.1253 1.61756 27.7386 1.15133 27.1728 1.15133C26.6177 1.15133 26.2305 1.61756 26.2305 2.28236H24.8907C24.8907 1.59838 25.0986 1.05149 25.5163 0.634897C25.9428 0.207872 26.4888 0 27.1728 0C27.8588 0 28.4037 0.207872 28.8313 0.634615C29.2572 1.05149 29.4659 1.5981 29.4659 2.28208C29.4659 2.88736 29.2075 3.44328 28.6919 3.95972L26.6866 5.95354H29.4659V7.04621H24.9201V6.00318Z" fill="#D80064"/>
<path d="M40.5415 12.5134C40.2045 12.1444 39.5932 11.8703 39.0559 11.8703C37.8964 11.8384 37.5275 13.1875 38.2332 13.7248C38.7079 14.1047 39.4457 14.3151 40.1308 14.6104C40.8157 14.9063 41.3642 15.4969 41.3642 16.371C41.3642 16.9715 41.164 17.4887 40.753 17.8994C40.3421 18.3112 39.7729 18.5225 39.0452 18.5225C38.097 18.5225 37.2954 18.1846 36.6523 17.4995L37.2745 16.8767C37.728 17.3731 38.2865 17.6252 38.9505 17.6252C39.404 17.6252 39.741 17.4995 39.9732 17.245C40.2146 16.9816 40.3311 16.6984 40.3311 16.3924C40.3311 14.864 36.8416 15.4535 36.8416 13.0185C36.8416 12.4392 37.0209 11.954 37.3899 11.5648C37.7588 11.1742 38.2752 10.9736 38.9502 10.9736C39.8457 10.9736 40.5841 11.2797 41.1736 11.881L40.5415 12.5134ZM50.8711 18.6903L49.9747 17.7939C49.3316 18.2793 48.5619 18.5225 47.6554 18.5225C46.5486 18.5225 45.6424 18.1741 44.9466 17.4777C44.2615 16.7828 43.9137 15.8754 43.9137 14.7478C43.9137 13.6201 44.2615 12.7136 44.9466 12.0178C45.6427 11.3217 46.5489 10.9739 47.6554 10.9739C48.7619 10.9739 49.6687 11.3217 50.3544 12.0178C51.0392 12.7136 51.3864 13.6201 51.3864 14.7478C51.3864 15.696 51.1337 16.4985 50.6172 17.1616L51.5136 18.0579L50.8711 18.6903ZM49.3218 17.1404L48.1823 15.9908L48.8152 15.37L49.8689 16.4243C50.1958 15.9496 50.3546 15.3908 50.3546 14.7478C50.3546 13.8943 50.1014 13.1985 49.6058 12.6719C49.1102 12.1337 48.4564 11.8703 47.645 11.8703C46.8442 11.8703 46.191 12.1337 45.6954 12.6719C45.2001 13.1985 44.9469 13.8943 44.9469 14.7478C44.9469 15.6012 45.2001 16.2971 45.6954 16.8352C46.191 17.3618 46.8442 17.6252 47.645 17.6252C48.3515 17.6252 48.91 17.4679 49.3218 17.1404ZM58.8686 11.0588H59.8705V15.7389C59.8705 16.5715 59.6065 17.2366 59.0909 17.7522C58.5733 18.2683 57.8992 18.5225 57.0669 18.5225C56.2343 18.5225 55.559 18.2683 55.0426 17.7522C54.5262 17.2366 54.2729 16.5715 54.2729 15.7389V11.0588H55.2747V15.7389C55.2747 16.2971 55.4434 16.7512 55.7695 17.0987C56.0966 17.4456 56.5282 17.6252 57.0559 17.6252C57.5932 17.6252 58.0253 17.4566 58.3629 17.1088C58.7 16.7622 58.8686 16.2971 58.8686 15.7389V11.0588ZM68.354 18.4367L67.5107 16.4875H64.0217L63.1792 18.4367H62.0189L65.2971 11.0588H66.2353L69.5135 18.4367H68.354ZM65.7716 12.345L64.3796 15.5902H67.1415L65.7716 12.345ZM75.7305 18.4367L74.0656 15.2851H73.1689V18.4367H72.136V11.0588H74.3084C74.9828 11.0588 75.5201 11.2484 75.9316 11.6381C76.3417 12.0288 76.542 12.5345 76.542 13.1776C76.542 14.1896 75.9838 14.9381 75.0553 15.1903L76.8689 18.437L75.7305 18.4367ZM74.3084 11.923H73.1689V14.4206H74.3084C75.0245 14.4206 75.5091 13.9259 75.5091 13.1773C75.5088 12.4186 75.0245 11.923 74.3084 11.923ZM80.5141 11.8911V14.3151H83.129V15.1486H80.5141V17.6142H83.5179V18.4367H79.5131V11.0588H83.4663V11.8911H80.5141ZM87.3651 11.0588V14.4527H91.7076V11.0588H92.3092V18.4367H91.7076V14.9692H87.3651V18.4367H86.7649V11.0588H87.3651ZM96.3648 11.5752V14.4527H99.2522V14.9692H96.3648V17.9203H99.6637V18.4367H95.7646V11.0588H99.6124V11.5752H96.3648ZM108.696 18.4367L107.684 16.1394H103.942L102.941 18.4367H102.255L105.523 11.0588H106.103L109.381 18.4367H108.696ZM105.82 11.8065L104.174 15.5902H107.453L105.82 11.8065ZM112.911 11.0588V17.9203H115.883V18.4367H112.31V11.0588H112.911ZM120.436 11.5752V18.4367H119.835V11.5752H117.652V11.0588H122.618V11.5752H120.436ZM126.232 11.0588V14.4527H130.575V11.0588H131.175V18.4367H130.575V14.9692H126.232V18.4367H125.632V11.0588H126.232ZM38.1156 22.2864H38.7121L40.2564 26.381H39.7182L39.3496 25.3752H37.4722L37.1095 26.381H36.5654L38.1156 22.2864ZM37.6183 24.9707H39.2035L38.414 22.7947H38.4021L37.6183 24.9707ZM41.3967 22.2864H41.8939V25.9359H44.1865V26.3804H41.3967V22.2864ZM44.7836 22.2864H45.3158L46.3684 25.7018H46.38L47.3804 22.2864H47.8712L48.8654 25.7018H48.8775L49.9358 22.2864H50.4624L49.1579 26.381H48.6082L47.6255 23.0356H47.6139L46.6318 26.381H46.0821L44.7836 22.2864ZM52.591 22.2864H53.1876L54.7318 26.381H54.1936L53.8256 25.3752H51.9477L51.5852 26.381H51.0414L52.591 22.2864ZM52.0943 24.9707H53.6792L52.8897 22.7947H52.8781L52.0943 24.9707ZM56.5863 24.7135L55.042 22.2864H55.6327L56.8319 24.2337H56.8435L58.0428 22.2864H58.6272L57.083 24.7135V26.3804H56.586L56.5863 24.7135ZM59.686 25.6318C60.0629 25.8742 60.5012 26.004 60.9493 26.0058C61.5989 26.0058 61.9083 25.7134 61.9083 25.31C61.9083 24.199 59.5103 24.9177 59.5103 23.339C59.5103 22.7132 60.031 22.2159 60.9141 22.2159C61.4584 22.2159 61.9083 22.351 62.2713 22.5265L62.0778 22.9354C61.7222 22.7562 61.3298 22.6621 60.9316 22.6604C60.3641 22.6604 60.031 22.9529 60.031 23.3331C60.031 24.4503 62.4233 23.7077 62.4233 25.3103C62.4233 25.9537 61.9436 26.4506 60.949 26.4506C60.3469 26.4506 59.7912 26.2577 59.4401 26.0301L59.686 25.6318ZM66.7923 22.7309H65.3127V22.2864H68.7748V22.7309H67.289V26.3804H66.792V22.7309H66.7923ZM69.9036 22.2864H70.4011V24.0763H72.5298V22.2864H73.0276V26.381H72.5298V24.5152H70.4011V26.381H69.9036V22.2864ZM74.4776 22.2864H77.2849V22.7309H74.9746V24.0879H77.0573V24.5036H74.9746V25.9365H77.3202V26.381H74.4776V22.2864ZM78.6593 22.2864H80.3731C81.4141 22.2864 81.7828 22.9007 81.7828 23.5088C81.7828 24.0002 81.5134 24.4794 80.9169 24.6607L81.7884 26.381H81.2387L80.4557 24.7312H79.1572V26.381H78.6596V22.2864H78.6593ZM80.3615 24.3333C81.0221 24.3333 81.2799 23.924 81.2799 23.5142C81.2799 23.0934 81.0283 22.7072 80.3671 22.7072H79.1569V24.3336H80.3615V24.3333ZM83.1222 22.2864H85.9295V22.7309H83.6198V24.0879H85.7013V24.5036H83.6198V25.9365H85.9647V26.381H83.1222V22.2864ZM89.234 22.2864H89.731V24.0763H91.8602V22.2864H92.3574V26.381H91.8602V24.5152H89.731V26.381H89.234V22.2864ZM93.808 22.2864H96.6153V22.7309H94.305V24.0879H96.3877V24.5036H94.305V25.9365H96.6505V26.381H93.808V22.2864ZM99.2237 22.2864H99.8202L101.364 26.381H100.826L100.458 25.3752H98.5803L98.2179 26.381H97.6735L99.2237 22.2864ZM98.7264 24.9707H100.312L99.5215 22.7947H99.51L98.7264 24.9707ZM102.505 22.2864H103.003V25.9359H105.295V26.3804H102.505V22.2864ZM107.044 22.7309H105.564V22.2864H109.026V22.7309H107.54V26.3804H107.043V22.7309H107.044ZM110.155 22.2864H110.653V24.0763H112.781V22.2864H113.279V26.381H112.781V24.5152H110.653V26.381H110.155V22.2864ZM116.624 22.2159C117.127 22.2159 117.601 22.3679 117.981 22.6604L117.712 23.0229C117.397 22.7831 117.034 22.6489 116.63 22.6489C115.695 22.6489 115.062 23.3038 115.062 24.2921C115.062 25.3278 115.677 26.0174 116.63 26.0174C117.075 26.0174 117.466 25.8597 117.764 25.5735L118.075 25.9006C117.688 26.2693 117.186 26.4504 116.612 26.4504C115.384 26.4504 114.559 25.5735 114.559 24.2921C114.559 23.064 115.402 22.2159 116.624 22.2159ZM120.566 22.2864H121.162L122.707 26.381H122.169L121.8 25.3752H119.923L119.56 26.381H119.016L120.566 22.2864ZM120.069 24.9707H121.654L120.864 22.7947H120.852L120.069 24.9707ZM123.847 22.2864H125.561C126.602 22.2864 126.97 22.9007 126.97 23.5088C126.97 24.0002 126.701 24.4794 126.105 24.6607L126.976 26.381H126.427L125.643 24.7312H124.345V26.381H123.847V22.2864H123.847ZM125.549 24.3333C126.21 24.3333 126.468 23.924 126.468 23.5142C126.468 23.0934 126.216 22.7072 125.555 22.7072H124.345V24.3336H125.549V24.3333ZM128.31 22.2864H131.117V22.7309H128.807V24.0879H130.89V24.5036H128.807V25.9365H131.152V26.381H128.31V22.2864Z" fill="#121C22"/>
</g>
<defs>
<clipPath id="clip0">
<rect width="132" height="29.6154" fill="white"/>
</clipPath>
</defs>
</svg>
